<?xml version="1.0" encoding="iso-8859-1"?>
<!-- Generator: Adobe Illustrator 19.0.0, SVG Export Plug-In . SVG Version: 6.00 Build 0)  -->
<svg version="1.1" id="Capa_1" xmlns="http://www.w3.org/2000/svg" xmlns:xlink="http://www.w3.org/1999/xlink" x="0px" y="0px"
	 viewBox="0 0 433.28 433.28" style="enable-background:new 0 0 433.28 433.28;" xml:space="preserve">
<path style="fill:#2CB4FF;" d="M216.64,3.28C98.805,3.28,3.28,98.805,3.28,216.64S98.805,430,216.64,430S430,334.475,430,216.64l0,0
	C429.868,98.859,334.421,3.412,216.64,3.28L216.64,3.28z"/>
<g>
	<path style="fill:#ACEE2A;" d="M192,353.36c-1.946-17.058-6.031-33.803-12.16-49.84l-0.56-1.36v-45.52l-8.96-14.48l-2.48-22.96
		l-21.52-17.04c-1.118-0.73-2.425-1.12-3.76-1.12c-4.8,0-9.28,4.96-10.96,7.12l-1.84,2.32l-2.96,0.56
		c-4.224,0.826-8.315,2.225-12.16,4.16l-6.4,3.12l-3.6-6c-5.782-8.286-12.612-15.788-20.32-22.32l-2.72-2.4v-45.68l2.96-2.4
		c10.732-10.182,19.658-22.112,26.4-35.28l2.24-4.08l20.4-0.48l13.52-11.52h23.52v18l31.04,17.52l2-16.48l47.04,3.52l0.96,28.48
		c9.84,48,39.28,49.92,40.56,50l9.04,12.8l-38.08,40l-1.92,22.64h8v23.12l-5.92,1.6c-7.327,2.489-12.48,9.088-13.12,16.8
		c0.865,0.904,1.666,1.867,2.4,2.88l6.16,8.72l-10.16,3.52c-1.221,0.416-2.481,0.711-3.76,0.88c-8.4,33.04-32,38.32-44.8,38.56
		h-7.44L192,353.36z"/>
	<path style="fill:#ACEE2A;" d="M278.16,341.68c-0.517-17.497,9.691-33.538,25.76-40.48l10-4.56l1.36,10.88
		c1.522,9.062-0.328,18.368-5.2,26.16c-5.287,7.349-12.807,12.793-21.44,15.52l-10.4,3.44L278.16,341.68z"/>
</g>
<path d="M216.64,0C96.993,0,0,96.993,0,216.64s96.993,216.64,216.64,216.64s216.64-96.993,216.64-216.64
	C433.148,97.048,336.232,0.132,216.64,0z M216.64,417.36C105.83,417.36,16,327.53,16,216.72c0-110.81,89.83-200.64,200.64-200.64
	c110.779,0,200.596,89.781,200.64,200.56c-0.132,110.756-89.884,200.508-200.64,200.64V417.36z"/>
<path d="M269.28,296.64c4.418,0,8-3.582,8-8v-24.48c0.01-4.208-3.242-7.705-7.44-8l0.72-10.64l42.56-44.88
	c1.4-1.496,2.173-3.471,2.16-5.52v-16.96c0.024-4.418-3.539-8.019-7.957-8.043c-1.678-0.009-3.316,0.51-4.683,1.483l-12.8,9.12
	c-6.4-1.68-23.52-9.12-30.56-42.56l-0.96-27.84c0.01-4.209-3.242-7.705-7.44-8l-46.96-3.52c-4.28-0.33-8.058,2.777-8.56,7.04
	l-0.56,4.64l-16.48-9.28V88.16c0-4.418-3.582-8-8-8H146.8c-1.907,0-3.751,0.681-5.2,1.92l-11.36,9.68l-17.6,0.4
	c-2.955,0.068-5.631,1.76-6.96,4.4c-4.08,8-17.12,30.8-28.72,38.4c-2.259,1.487-3.613,4.015-3.6,6.72v46
	c0.016,2.393,1.102,4.653,2.96,6.16c9.824,7.537,17.993,17.013,24,27.84c1.388,4.195,5.914,6.47,10.108,5.082
	c0.761-0.252,1.479-0.616,2.132-1.082c5.421-3.675,11.601-6.081,18.08-7.04c2.49-0.21,4.739-1.571,6.08-3.68
	c1.478-2.28,3.315-4.306,5.44-6l18.16,14.4l2.16,19.68c0.118,1.19,0.5,2.338,1.12,3.36l8,12.56v43.2
	c-0.002,1.013,0.188,2.018,0.56,2.96c6.966,17.596,11.175,36.161,12.48,55.04c-0.071,3.887,2.663,7.262,6.48,8
	c2.802,0.464,5.64,0.678,8.48,0.64c24.539,0.471,46.117-16.153,51.92-40c4.871-1.333,8.874-4.805,10.88-9.44
	c1.719-5.351,0.505-11.213-3.2-15.44C260.509,299.481,264.654,296.487,269.28,296.64L269.28,296.64z M261.28,281.68
	c-10.672,3.314-18.206,12.851-18.96,24c-0.21,2.255,0.546,4.494,2.08,6.16c0.606,0.655,1.167,1.35,1.68,2.08l-2.24,0.56
	c-3.321,0.367-6.065,2.759-6.88,6c-6.56,26.4-24,32-37.04,32.48c-2.006-17.805-6.281-35.28-12.72-52v-44.32
	c0.005-1.498-0.411-2.967-1.2-4.24l-8-12.96l-2.32-21.2c-0.216-2.137-1.283-4.098-2.96-5.44l-21.52-16.96l-0.72-0.48
	c-2.391-1.519-5.167-2.324-8-2.32c-6.937,0.726-13.216,4.435-17.2,10.16c-4.913,0.96-9.676,2.574-14.16,4.8
	c-6.211-8.911-13.552-16.979-21.84-24v-38.32c11.569-10.828,21.178-23.576,28.4-37.68h16c1.824-0.056,3.574-0.733,4.96-1.92
	l11.28-9.6h12.56v10c0.005,2.886,1.564,5.546,4.08,6.96l30.96,17.52c3.857,2.154,8.731,0.774,10.885-3.084
	c0.503-0.901,0.828-1.892,0.955-2.916l1.12-8.88l32,2.4l0.72,21.36c-0.039,0.453-0.039,0.907,0,1.36c11.12,53.92,46.48,56,48,56
	c1.233,0.067,2.466-0.152,3.6-0.64l-38.16,40.08c-1.274,1.352-2.038,3.106-2.16,4.96l-1.52,22.48
	c-0.309,4.407,3.013,8.231,7.42,8.54c0.193,0.013,0.386,0.02,0.58,0.02L261.28,281.68z"/>
<path d="M311.6,290.08c-28.424,6.107-46.515,34.099-40.408,62.523c0.003,0.012,0.005,0.025,0.008,0.037
	c0.669,3.881,4.063,6.697,8,6.64h0.96c14.583-2.041,27.775-9.744,36.72-21.44c7.463-12.765,8.842-28.194,3.76-42.08
	C319.516,291.839,315.621,289.392,311.6,290.08z M303.6,329.2c-4.29,5.871-10.345,10.216-17.28,12.4
	c-0.457-14.38,7.963-27.565,21.2-33.2c1.252,7.225-0.201,14.658-4.08,20.88L303.6,329.2z"/>
<g>
</g>
<g>
</g>
<g>
</g>
<g>
</g>
<g>
</g>
<g>
</g>
<g>
</g>
<g>
</g>
<g>
</g>
<g>
</g>
<g>
</g>
<g>
</g>
<g>
</g>
<g>
</g>
<g>
</g>
</svg>
