<?xml version="1.0" encoding="utf-8"?>
<!-- Generator: Adobe Illustrator 16.0.2, SVG Export Plug-In . SVG Version: 6.00 Build 0)  -->
<!DOCTYPE svg PUBLIC "-//W3C//DTD SVG 1.1//EN" "http://www.w3.org/Graphics/SVG/1.1/DTD/svg11.dtd">
<svg version="1.1" id="Layer_1" xmlns="http://www.w3.org/2000/svg" xmlns:xlink="http://www.w3.org/1999/xlink" x="0px" y="0px"
	 width="295px" height="205px" viewBox="0 0 295 205" enable-background="new 0 0 295 205" xml:space="preserve">
<g>
	<path fill="#80BD4B" d="M127.357,60.213c-0.018-0.372-0.028-0.745-0.028-1.122c0-0.375,0.01-0.749,0.028-1.121
		c0.484-19.826,13.694-36.497,31.783-42.127c-3.699-1.066-7.592-1.648-11.619-1.648c-23.917,0-43.305,20.101-43.305,44.896
		c0,24.796,19.388,44.897,43.305,44.897c4.027,0,7.919-0.582,11.619-1.647C141.051,96.709,127.841,80.04,127.357,60.213"/>
	<path fill="#395999" d="M190.826,59.091c0-20.621-13.414-37.983-31.686-43.248c-18.089,5.63-31.3,22.301-31.783,42.127
		c0.554-11.202,9.37-20.106,20.165-20.106c11.152,0,20.193,9.504,20.193,21.228c0,11.724-9.041,21.228-20.193,21.228
		c-10.795,0-19.61-8.903-20.165-20.106c0.483,19.826,13.694,36.497,31.783,42.128C177.412,97.075,190.826,79.713,190.826,59.091"/>
	<path fill="#395999" d="M30.125,156.735c-5.045,0-9.135-4.215-9.135-9.416c0-5.198,4.09-9.413,9.135-9.413
		c2.562,0,4.874,1.09,6.532,2.838l7.042-7.175c-3.453-3.62-8.258-5.868-13.574-5.868c-10.513,0-19.036,8.785-19.036,19.618
		c0,10.837,8.523,19.62,19.036,19.62c5.316,0,10.121-2.248,13.574-5.867l-7.042-7.177C34.998,155.645,32.686,156.735,30.125,156.735
		"/>
	<path fill="#395999" d="M156.922,156.735c-5.047,0-9.136-4.215-9.136-9.416c0-5.198,4.089-9.413,9.136-9.413
		c2.561,0,4.873,1.09,6.531,2.838l7.041-7.175c-3.453-3.62-8.258-5.868-13.572-5.868c-10.515,0-19.038,8.785-19.038,19.618
		c0,10.837,8.522,19.62,19.038,19.62c5.314,0,10.119-2.248,13.572-5.867l-7.041-7.177
		C161.795,155.645,159.482,156.735,156.922,156.735"/>
	<rect x="51.329" y="127.701" fill="#395999" width="9.636" height="39.238"/>
	<polygon fill="#395999" points="131.514,135.936 131.514,127.701 117.813,127.701 110.669,127.701 108.178,127.701 
		108.178,166.939 110.669,166.939 117.813,166.939 131.514,166.939 131.514,158.705 117.813,158.705 117.813,151.438 
		129.98,151.438 129.98,143.203 117.813,143.203 117.813,135.936 	"/>
	<polygon fill="#395999" points="283.955,135.936 283.955,127.701 270.254,127.701 263.109,127.701 260.619,127.701 
		260.619,166.939 263.109,166.939 270.254,166.939 283.955,166.939 283.955,158.705 270.254,158.705 270.254,151.438 
		282.422,151.438 282.422,143.203 270.254,143.203 270.254,135.936 	"/>
	<polygon fill="#395999" points="91.095,127.701 91.095,146.835 72.956,127.701 69.226,127.701 69.226,138.169 69.226,166.939 
		78.678,166.939 78.678,147.804 96.817,166.939 100.547,166.939 100.547,156.471 100.547,127.701 	"/>
	<path fill="#395999" d="M195.605,127.694c-10.35,0-18.742,8.786-18.742,19.625c0,10.841,8.393,19.628,18.742,19.628
		c10.352,0,18.742-8.787,18.742-19.628C214.348,136.48,205.957,127.694,195.605,127.694 M195.512,156.805
		c-5.004,0-9.059-4.246-9.059-9.485c0-5.237,4.055-9.486,9.059-9.486c5.002,0,9.057,4.249,9.057,9.486
		C204.568,152.559,200.514,156.805,195.512,156.805"/>
	<path fill="#395999" d="M254.879,166.939l-7.77-13.928c2.92-2.661,4.754-6.496,4.754-10.758c0-8.037-6.516-14.553-14.553-14.553
		h-15.332v39.238h9.635v-10.135h5.697c0.291,0,0.58-0.011,0.867-0.026l5.668,10.161H254.879z M231.613,136.5h6.309
		c3.152,0,5.711,2.556,5.711,5.71c0,3.152-2.559,5.711-5.711,5.711h-6.309V136.5z"/>
	<polygon fill="#80BD4B" points="25.425,176.914 25.425,178.428 16.856,178.428 16.856,183.227 24.179,183.227 24.179,184.74 
		16.856,184.74 16.856,190.641 14.428,190.641 14.428,176.914 	"/>
	<path fill="#80BD4B" d="M56.767,183.783c0,1.027-0.212,1.973-0.636,2.83c-0.423,0.859-1.021,1.598-1.793,2.219
		c-0.772,0.619-1.7,1.1-2.783,1.439c-1.084,0.344-2.282,0.514-3.593,0.514c-1.312,0-2.507-0.17-3.587-0.514
		c-1.079-0.34-2.005-0.82-2.777-1.439c-0.772-0.621-1.37-1.359-1.793-2.219c-0.423-0.857-0.635-1.803-0.635-2.83
		c0-1.029,0.212-1.973,0.635-2.832s1.021-1.6,1.793-2.223s1.698-1.105,2.777-1.451c1.08-0.344,2.275-0.518,3.587-0.518
		c1.312,0,2.509,0.174,3.593,0.518c1.083,0.346,2.011,0.828,2.783,1.451s1.37,1.363,1.793,2.223
		C56.555,181.811,56.767,182.754,56.767,183.783 M54.289,183.783c0-0.844-0.149-1.6-0.448-2.271c-0.3-0.672-0.723-1.236-1.271-1.701
		c-0.548-0.461-1.212-0.818-1.993-1.066c-0.78-0.252-1.651-0.375-2.615-0.375c-0.955,0-1.823,0.123-2.603,0.375
		c-0.781,0.248-1.447,0.605-1.999,1.066c-0.553,0.465-0.979,1.029-1.277,1.701s-0.448,1.428-0.448,2.271
		c0,0.842,0.149,1.596,0.448,2.266c0.299,0.666,0.724,1.23,1.277,1.693c0.552,0.465,1.218,0.82,1.999,1.064
		c0.78,0.246,1.648,0.369,2.603,0.369c0.963,0,1.835-0.123,2.615-0.369c0.781-0.244,1.445-0.6,1.993-1.064
		c0.548-0.463,0.971-1.027,1.271-1.693C54.14,185.379,54.289,184.625,54.289,183.783"/>
	<path fill="#80BD4B" d="M78.669,189.166c0.738,0,1.399-0.096,1.98-0.287c0.581-0.191,1.073-0.461,1.475-0.805
		c0.404-0.346,0.711-0.758,0.922-1.236c0.212-0.479,0.318-1.006,0.318-1.58v-8.344h2.403v8.344c0,0.791-0.164,1.525-0.492,2.203
		c-0.328,0.676-0.797,1.264-1.407,1.758c-0.61,0.494-1.355,0.883-2.235,1.164c-0.88,0.281-1.869,0.422-2.964,0.422
		c-1.096,0-2.084-0.141-2.964-0.422s-1.627-0.67-2.241-1.164c-0.615-0.494-1.086-1.082-1.414-1.758
		c-0.329-0.678-0.493-1.412-0.493-2.203v-8.344h2.404v8.334c0,0.574,0.106,1.102,0.318,1.58c0.211,0.479,0.519,0.891,0.921,1.236
		c0.403,0.344,0.897,0.615,1.482,0.811C77.268,189.068,77.93,189.166,78.669,189.166"/>
	<path fill="#80BD4B" d="M103.305,176.975c0.104,0.041,0.223,0.127,0.355,0.254l10.336,10.348c-0.024-0.166-0.042-0.326-0.049-0.484
		c-0.008-0.156-0.013-0.309-0.013-0.455v-9.725h2.118v13.73h-1.222c-0.191,0-0.351-0.027-0.479-0.078
		c-0.129-0.051-0.255-0.137-0.38-0.258l-10.325-10.338c0.017,0.16,0.029,0.316,0.038,0.469c0.008,0.154,0.012,0.295,0.012,0.424
		v9.781h-2.117v-13.73h1.245C103.042,176.912,103.201,176.934,103.305,176.975"/>
	<path fill="#80BD4B" d="M147.543,183.783c0,1.027-0.212,1.963-0.636,2.805c-0.424,0.844-1.021,1.566-1.793,2.166
		c-0.772,0.6-1.698,1.064-2.777,1.395c-1.08,0.328-2.275,0.494-3.587,0.494h-6.675v-13.729h6.675c1.312,0,2.507,0.164,3.587,0.492
		c1.079,0.328,2.005,0.795,2.777,1.398c0.771,0.605,1.369,1.326,1.793,2.17S147.543,182.754,147.543,183.783 M145.065,183.783
		c0-0.844-0.149-1.598-0.448-2.262c-0.3-0.664-0.723-1.227-1.271-1.688c-0.548-0.457-1.212-0.811-1.993-1.053
		c-0.78-0.242-1.647-0.363-2.603-0.363h-4.247v10.721h4.247c0.955,0,1.822-0.123,2.603-0.365c0.781-0.242,1.445-0.592,1.993-1.049
		s0.971-1.018,1.271-1.682C144.916,185.379,145.065,184.625,145.065,183.783"/>
	<path fill="#80BD4B" d="M176.654,190.643h-1.867c-0.215,0-0.391-0.043-0.523-0.125c-0.133-0.084-0.232-0.188-0.299-0.316
		l-1.668-3.314h-8.008l-1.67,3.314c-0.059,0.115-0.156,0.217-0.299,0.307c-0.141,0.09-0.314,0.135-0.523,0.135h-1.867l7.137-13.729
		h2.453L176.654,190.643z M164.961,185.545h6.664l-2.803-5.586c-0.184-0.344-0.361-0.777-0.535-1.293
		c-0.092,0.264-0.182,0.502-0.27,0.723c-0.086,0.221-0.172,0.414-0.254,0.58L164.961,185.545z"/>
	<polygon fill="#80BD4B" points="201.086,176.914 201.086,178.475 195.32,178.475 195.32,190.641 192.902,190.641 192.902,178.475 
		187.113,178.475 187.113,176.914 	"/>
	<rect x="215.74" y="176.914" fill="#80BD4B" width="2.416" height="13.729"/>
	<path fill="#80BD4B" d="M251.18,183.783c0,1.027-0.213,1.973-0.637,2.83c-0.422,0.859-1.021,1.598-1.793,2.219
		c-0.771,0.619-1.699,1.1-2.783,1.439c-1.084,0.344-2.281,0.514-3.594,0.514c-1.311,0-2.506-0.17-3.586-0.514
		c-1.08-0.34-2.004-0.82-2.777-1.439c-0.771-0.621-1.371-1.359-1.793-2.219c-0.424-0.857-0.635-1.803-0.635-2.83
		c0-1.029,0.211-1.973,0.635-2.832c0.422-0.859,1.021-1.6,1.793-2.223c0.773-0.623,1.697-1.105,2.777-1.451
		c1.08-0.344,2.275-0.518,3.586-0.518c1.313,0,2.51,0.174,3.594,0.518c1.084,0.346,2.012,0.828,2.783,1.451s1.371,1.363,1.793,2.223
		C250.967,181.811,251.18,182.754,251.18,183.783 M248.701,183.783c0-0.844-0.15-1.6-0.449-2.271s-0.723-1.236-1.27-1.701
		c-0.549-0.461-1.213-0.818-1.994-1.066c-0.779-0.252-1.65-0.375-2.615-0.375c-0.953,0-1.822,0.123-2.602,0.375
		c-0.781,0.248-1.447,0.605-2,1.066c-0.553,0.465-0.977,1.029-1.277,1.701c-0.297,0.672-0.447,1.428-0.447,2.271
		c0,0.842,0.15,1.596,0.447,2.266c0.301,0.666,0.725,1.23,1.277,1.693c0.553,0.465,1.219,0.82,2,1.064
		c0.779,0.246,1.648,0.369,2.602,0.369c0.965,0,1.836-0.123,2.615-0.369c0.781-0.244,1.445-0.6,1.994-1.064
		c0.547-0.463,0.971-1.027,1.27-1.693C248.551,185.379,248.701,184.625,248.701,183.783"/>
	<path fill="#80BD4B" d="M267.869,176.975c0.104,0.041,0.223,0.127,0.355,0.254l10.336,10.348c-0.023-0.166-0.041-0.326-0.049-0.484
		c-0.01-0.156-0.014-0.309-0.014-0.455v-9.725h2.117v13.73h-1.221c-0.189,0-0.352-0.027-0.479-0.078
		c-0.129-0.051-0.256-0.137-0.379-0.258l-10.324-10.338c0.016,0.16,0.027,0.316,0.037,0.469c0.008,0.154,0.012,0.295,0.012,0.424
		v9.781h-2.117v-13.73h1.244C267.605,176.912,267.766,176.934,267.869,176.975"/>
</g>
</svg>
